<svg xmlns="http://www.w3.org/2000/svg" viewBox="0 0 512 512">
  <defs>
    <linearGradient id="grad1" x1="0%" y1="0%" x2="100%" y2="100%">
      <stop offset="0%" style="stop-color:#00E5FF;stop-opacity:1" />
      <stop offset="100%" style="stop-color:#4CAF50;stop-opacity:1" />
    </linearGradient>
  </defs>
  <circle cx="256" cy="256" r="256" fill="#002B5B" />
  <path d="M256 128c-70.7 0-128 57.3-128 128s57.3 128 128 128 128-57.3 128-128-57.3-128-128-128zm0 208c-44.1 0-80-35.9-80-80s35.9-80 80-80 80 35.9 80 80-35.9 80-80 80z" fill="white" />
  <path d="M384 128c-30 0-54.4 24.4-54.4 54.4 0 10.6 3.1 20.4 8.4 28.7L256 384l-82-172.9c5.3-8.3 8.4-18.1 8.4-28.7 0-30-24.4-54.4-54.4-54.4S73.6 152.4 73.6 182.4c0 30 24.4 54.4 54.4 54.4 10.6 0 20.4-3.1 28.7-8.4L256 438.4l99.3-210c8.3 5.3 18.1 8.4 28.7 8.4 30 0 54.4-24.4 54.4-54.4 0-30-24.4-54.4-54.4-54.4z" fill="url(#grad1)" opacity="0.8" />
</svg>
